<svg xmlns="http://www.w3.org/2000/svg" xmlns:xlink="http://www.w3.org/1999/xlink" preserveAspectRatio="xMidYMid" width="26" height="26" viewBox="0 0 26 26">
  <defs>
    <style>
      .cls-1 {
        fill: #febac3;
      }

      .cls-1, .cls-2 {
        fill-rule: evenodd;
      }

      .cls-2 {
        fill: #fd7285;
      }
    </style>
  </defs>
  <path d="M16.934,13.675 C16.798,13.284 16.437,13.000 16.000,13.000 C15.448,13.000 15.000,13.448 15.000,14.000 C15.000,14.552 15.448,15.000 16.000,15.000 C16.200,15.000 16.376,14.926 16.532,14.825 C16.367,15.139 16.176,15.436 15.938,15.695 C15.808,15.294 15.444,15.000 15.000,15.000 C14.448,15.000 14.000,15.448 14.000,16.000 C14.000,16.303 14.142,16.565 14.354,16.749 C13.930,16.902 13.478,17.000 13.000,17.000 C10.791,17.000 9.000,15.209 9.000,13.000 C9.000,11.449 9.892,10.119 11.183,9.455 C11.077,9.614 11.000,9.794 11.000,10.000 C11.000,10.552 11.448,11.000 12.000,11.000 C12.552,11.000 13.000,10.552 13.000,10.000 C13.000,9.566 12.720,9.205 12.333,9.067 C12.551,9.030 12.772,9.000 13.000,9.000 C13.000,9.552 13.448,10.000 14.000,10.000 C14.373,10.000 14.685,9.787 14.857,9.485 C15.158,9.647 15.445,9.832 15.695,10.062 C15.294,10.192 15.000,10.556 15.000,11.000 C15.000,11.552 15.448,12.000 16.000,12.000 C16.303,12.000 16.565,11.858 16.749,11.646 C16.902,12.070 17.000,12.522 17.000,13.000 C17.000,13.231 16.973,13.455 16.934,13.675 ZM11.000,16.000 C11.552,16.000 12.000,15.552 12.000,15.000 C12.000,14.448 11.552,14.000 11.000,14.000 C10.448,14.000 10.000,14.448 10.000,15.000 C10.000,15.552 10.448,16.000 11.000,16.000 ZM11.000,11.000 C10.448,11.000 10.000,11.448 10.000,12.000 C10.000,12.552 10.448,13.000 11.000,13.000 C11.552,13.000 12.000,12.552 12.000,12.000 C12.000,11.448 11.552,11.000 11.000,11.000 ZM12.000,14.000 C12.000,14.552 12.448,15.000 13.000,15.000 C13.552,15.000 14.000,14.552 14.000,14.000 C14.000,13.448 13.552,13.000 13.000,13.000 C12.448,13.000 12.000,13.448 12.000,14.000 ZM14.000,11.000 C13.448,11.000 13.000,11.448 13.000,12.000 C13.000,12.552 13.448,13.000 14.000,13.000 C14.552,13.000 15.000,12.552 15.000,12.000 C15.000,11.448 14.552,11.000 14.000,11.000 Z" class="cls-1"/>
  <path d="M24.661,15.889 L22.229,15.889 C21.838,15.889 21.515,16.104 21.366,16.465 C21.216,16.826 21.292,17.207 21.568,17.483 L23.288,19.202 C23.541,19.456 23.680,19.792 23.680,20.149 C23.680,20.507 23.541,20.843 23.288,21.096 L21.096,23.288 C20.590,23.794 19.708,23.795 19.202,23.288 L17.482,21.568 C17.206,21.293 16.826,21.216 16.465,21.366 C16.104,21.516 15.888,21.838 15.888,22.229 L15.888,24.661 C15.888,25.400 15.288,26.000 14.550,26.000 L11.450,26.000 C10.711,26.000 10.111,25.400 10.111,24.661 L10.111,22.229 C10.111,21.838 9.896,21.516 9.535,21.366 C9.173,21.216 8.793,21.293 8.517,21.568 L6.797,23.288 C6.291,23.795 5.410,23.794 4.904,23.288 L2.712,21.096 C2.459,20.843 2.320,20.507 2.320,20.149 C2.320,19.792 2.459,19.455 2.712,19.202 L4.432,17.483 C4.707,17.207 4.783,16.826 4.634,16.465 C4.484,16.104 4.162,15.889 3.771,15.889 L1.338,15.889 C0.600,15.889 -0.000,15.288 -0.000,14.550 L-0.000,11.450 C-0.000,10.711 0.600,10.111 1.338,10.111 L3.771,10.111 C4.162,10.111 4.484,9.896 4.634,9.535 C4.783,9.174 4.707,8.793 4.432,8.517 L2.712,6.798 C2.459,6.544 2.320,6.208 2.320,5.851 C2.320,5.493 2.459,5.157 2.712,4.904 L4.904,2.712 C5.409,2.206 6.291,2.205 6.797,2.712 L8.517,4.431 C8.793,4.707 9.175,4.784 9.535,4.634 C9.896,4.484 10.111,4.162 10.111,3.771 L10.111,1.339 C10.111,0.600 10.711,-0.000 11.450,-0.000 L14.550,-0.000 C15.288,-0.000 15.889,0.600 15.889,1.339 L15.889,3.771 C15.889,4.162 16.104,4.484 16.465,4.634 C16.825,4.784 17.207,4.707 17.483,4.431 L19.202,2.712 C19.709,2.205 20.590,2.206 21.096,2.712 L23.288,4.904 C23.541,5.157 23.680,5.493 23.680,5.851 C23.680,6.208 23.541,6.545 23.288,6.798 L21.568,8.517 C21.292,8.793 21.216,9.174 21.366,9.535 C21.516,9.896 21.838,10.111 22.229,10.111 L24.661,10.111 C25.400,10.111 26.000,10.711 26.000,11.450 L26.000,14.550 C26.000,15.288 25.400,15.889 24.661,15.889 ZM25.037,11.450 C25.037,11.243 24.869,11.074 24.661,11.075 L22.229,11.075 C21.447,11.075 20.775,10.626 20.476,9.904 C20.177,9.181 20.335,8.389 20.888,7.836 L22.607,6.117 C22.754,5.970 22.754,5.732 22.607,5.585 L20.415,3.393 C20.269,3.246 20.031,3.246 19.884,3.393 L18.164,5.112 C17.612,5.665 16.820,5.823 16.097,5.524 C15.375,5.225 14.926,4.553 14.926,3.771 L14.926,1.339 C14.926,1.131 14.757,0.963 14.550,0.963 L11.450,0.963 C11.242,0.963 11.074,1.131 11.074,1.339 L11.074,3.771 C11.074,4.553 10.625,5.225 9.903,5.523 C9.180,5.823 8.388,5.664 7.836,5.112 L6.116,3.392 C5.969,3.246 5.731,3.246 5.585,3.392 L3.392,5.585 C3.246,5.731 3.246,5.969 3.392,6.116 L5.112,7.836 C5.666,8.388 5.823,9.181 5.524,9.903 C5.225,10.625 4.553,11.074 3.771,11.074 L1.338,11.074 C1.131,11.074 0.963,11.243 0.963,11.450 L0.963,14.550 C0.963,14.757 1.131,14.926 1.338,14.926 L3.771,14.926 C4.553,14.926 5.225,15.375 5.524,16.096 C5.823,16.819 5.665,17.611 5.112,18.164 L3.392,19.883 C3.246,20.030 3.246,20.268 3.392,20.415 L5.585,22.607 C5.731,22.753 5.969,22.754 6.116,22.607 L7.836,20.887 C8.203,20.519 8.677,20.327 9.165,20.327 C9.411,20.327 9.661,20.376 9.903,20.476 C10.625,20.775 11.074,21.447 11.074,22.229 L11.074,24.661 C11.074,24.868 11.242,25.037 11.450,25.037 L14.550,25.037 C14.757,25.037 14.926,24.868 14.926,24.661 L14.926,22.229 C14.926,21.447 15.375,20.775 16.097,20.476 C16.819,20.178 17.611,20.334 18.164,20.888 L19.884,22.607 C20.031,22.755 20.269,22.754 20.415,22.607 L22.607,20.415 C22.754,20.269 22.754,20.031 22.607,19.884 L20.888,18.164 C20.334,17.612 20.177,16.819 20.476,16.097 C20.775,15.375 21.447,14.926 22.229,14.926 L24.661,14.926 C24.869,14.926 25.037,14.757 25.037,14.550 L25.037,11.450 ZM13.000,17.333 C10.610,17.333 8.667,15.390 8.667,13.000 C8.667,10.610 10.610,8.667 13.000,8.667 C15.389,8.667 17.333,10.610 17.333,13.000 C17.333,15.390 15.389,17.333 13.000,17.333 ZM13.000,9.630 C11.142,9.630 9.630,11.142 9.630,13.000 C9.630,14.858 11.142,16.370 13.000,16.370 C14.858,16.370 16.370,14.858 16.370,13.000 C16.370,11.142 14.858,9.630 13.000,9.630 Z" class="cls-2"/>
</svg>
