<svg xmlns="http://www.w3.org/2000/svg" xmlns:xlink="http://www.w3.org/1999/xlink" preserveAspectRatio="xMidYMid" width="24" height="27" viewBox="0 0 24 27">
  <defs>
    <style>
      .cls-1 {
        fill: #febac3;
      }

      .cls-1, .cls-2 {
        fill-rule: evenodd;
      }

      .cls-2 {
        fill: #fd586f;
      }
    </style>
  </defs>
  <g>
    <path d="M7.934,14.675 C7.798,14.284 7.437,14.000 7.000,14.000 C6.448,14.000 6.000,14.448 6.000,15.000 C6.000,15.552 6.448,16.000 7.000,16.000 C7.200,16.000 7.376,15.926 7.532,15.825 C7.367,16.139 7.176,16.436 6.938,16.695 C6.808,16.294 6.444,16.000 6.000,16.000 C5.448,16.000 5.000,16.448 5.000,17.000 C5.000,17.303 5.142,17.565 5.354,17.749 C4.930,17.902 4.478,18.000 4.000,18.000 C1.791,18.000 -0.000,16.209 -0.000,14.000 C-0.000,12.449 0.892,11.119 2.183,10.455 C2.077,10.614 2.000,10.794 2.000,11.000 C2.000,11.552 2.448,12.000 3.000,12.000 C3.552,12.000 4.000,11.552 4.000,11.000 C4.000,10.566 3.720,10.205 3.333,10.067 C3.551,10.030 3.772,10.000 4.000,10.000 C4.000,10.552 4.448,11.000 5.000,11.000 C5.373,11.000 5.685,10.787 5.857,10.485 C6.158,10.647 6.445,10.832 6.695,11.062 C6.294,11.192 6.000,11.556 6.000,12.000 C6.000,12.552 6.448,13.000 7.000,13.000 C7.303,13.000 7.565,12.858 7.749,12.646 C7.902,13.070 8.000,13.522 8.000,14.000 C8.000,14.231 7.973,14.455 7.934,14.675 ZM2.000,17.000 C2.552,17.000 3.000,16.552 3.000,16.000 C3.000,15.448 2.552,15.000 2.000,15.000 C1.448,15.000 1.000,15.448 1.000,16.000 C1.000,16.552 1.448,17.000 2.000,17.000 ZM2.000,12.000 C1.448,12.000 1.000,12.448 1.000,13.000 C1.000,13.552 1.448,14.000 2.000,14.000 C2.552,14.000 3.000,13.552 3.000,13.000 C3.000,12.448 2.552,12.000 2.000,12.000 ZM3.000,15.000 C3.000,15.552 3.448,16.000 4.000,16.000 C4.552,16.000 5.000,15.552 5.000,15.000 C5.000,14.448 4.552,14.000 4.000,14.000 C3.448,14.000 3.000,14.448 3.000,15.000 ZM5.000,12.000 C4.448,12.000 4.000,12.448 4.000,13.000 C4.000,13.552 4.448,14.000 5.000,14.000 C5.552,14.000 6.000,13.552 6.000,13.000 C6.000,12.448 5.552,12.000 5.000,12.000 Z" class="cls-1"/>
    <path d="M23.934,4.675 C23.798,4.284 23.437,4.000 23.000,4.000 C22.448,4.000 22.000,4.448 22.000,5.000 C22.000,5.552 22.448,6.000 23.000,6.000 C23.200,6.000 23.376,5.926 23.532,5.825 C23.367,6.139 23.176,6.436 22.938,6.695 C22.808,6.294 22.444,6.000 22.000,6.000 C21.448,6.000 21.000,6.448 21.000,7.000 C21.000,7.303 21.142,7.565 21.354,7.749 C20.930,7.902 20.478,8.000 20.000,8.000 C17.791,8.000 16.000,6.209 16.000,4.000 C16.000,2.449 16.892,1.119 18.183,0.455 C18.077,0.614 18.000,0.794 18.000,1.000 C18.000,1.552 18.448,2.000 19.000,2.000 C19.552,2.000 20.000,1.552 20.000,1.000 C20.000,0.566 19.720,0.205 19.333,0.067 C19.551,0.030 19.772,-0.000 20.000,-0.000 C20.000,0.552 20.448,1.000 21.000,1.000 C21.373,1.000 21.685,0.787 21.857,0.485 C22.158,0.647 22.445,0.832 22.695,1.062 C22.294,1.192 22.000,1.556 22.000,2.000 C22.000,2.552 22.448,3.000 23.000,3.000 C23.303,3.000 23.565,2.858 23.749,2.646 C23.902,3.070 24.000,3.522 24.000,4.000 C24.000,4.231 23.973,4.455 23.934,4.675 ZM18.000,7.000 C18.552,7.000 19.000,6.552 19.000,6.000 C19.000,5.448 18.552,5.000 18.000,5.000 C17.448,5.000 17.000,5.448 17.000,6.000 C17.000,6.552 17.448,7.000 18.000,7.000 ZM18.000,2.000 C17.448,2.000 17.000,2.448 17.000,3.000 C17.000,3.552 17.448,4.000 18.000,4.000 C18.552,4.000 19.000,3.552 19.000,3.000 C19.000,2.448 18.552,2.000 18.000,2.000 ZM19.000,5.000 C19.000,5.552 19.448,6.000 20.000,6.000 C20.552,6.000 21.000,5.552 21.000,5.000 C21.000,4.448 20.552,4.000 20.000,4.000 C19.448,4.000 19.000,4.448 19.000,5.000 ZM21.000,2.000 C20.448,2.000 20.000,2.448 20.000,3.000 C20.000,3.552 20.448,4.000 21.000,4.000 C21.552,4.000 22.000,3.552 22.000,3.000 C22.000,2.448 21.552,2.000 21.000,2.000 Z" class="cls-1"/>
    <path d="M23.934,22.675 C23.798,22.284 23.437,22.000 23.000,22.000 C22.448,22.000 22.000,22.448 22.000,23.000 C22.000,23.552 22.448,24.000 23.000,24.000 C23.200,24.000 23.376,23.926 23.532,23.825 C23.367,24.139 23.176,24.436 22.938,24.695 C22.808,24.294 22.444,24.000 22.000,24.000 C21.448,24.000 21.000,24.448 21.000,25.000 C21.000,25.303 21.142,25.565 21.354,25.749 C20.930,25.902 20.478,26.000 20.000,26.000 C17.791,26.000 16.000,24.209 16.000,22.000 C16.000,20.449 16.892,19.119 18.183,18.455 C18.077,18.614 18.000,18.794 18.000,19.000 C18.000,19.552 18.448,20.000 19.000,20.000 C19.552,20.000 20.000,19.552 20.000,19.000 C20.000,18.566 19.720,18.205 19.333,18.067 C19.551,18.030 19.772,18.000 20.000,18.000 C20.000,18.552 20.448,19.000 21.000,19.000 C21.373,19.000 21.685,18.787 21.857,18.485 C22.158,18.647 22.445,18.832 22.695,19.062 C22.294,19.192 22.000,19.556 22.000,20.000 C22.000,20.552 22.448,21.000 23.000,21.000 C23.303,21.000 23.565,20.858 23.749,20.646 C23.902,21.070 24.000,21.522 24.000,22.000 C24.000,22.231 23.973,22.455 23.934,22.675 ZM18.000,25.000 C18.552,25.000 19.000,24.552 19.000,24.000 C19.000,23.448 18.552,23.000 18.000,23.000 C17.448,23.000 17.000,23.448 17.000,24.000 C17.000,24.552 17.448,25.000 18.000,25.000 ZM18.000,20.000 C17.448,20.000 17.000,20.448 17.000,21.000 C17.000,21.552 17.448,22.000 18.000,22.000 C18.552,22.000 19.000,21.552 19.000,21.000 C19.000,20.448 18.552,20.000 18.000,20.000 ZM19.000,23.000 C19.000,23.552 19.448,24.000 20.000,24.000 C20.552,24.000 21.000,23.552 21.000,23.000 C21.000,22.448 20.552,22.000 20.000,22.000 C19.448,22.000 19.000,22.448 19.000,23.000 ZM21.000,20.000 C20.448,20.000 20.000,20.448 20.000,21.000 C20.000,21.552 20.448,22.000 21.000,22.000 C21.552,22.000 22.000,21.552 22.000,21.000 C22.000,20.448 21.552,20.000 21.000,20.000 Z" class="cls-1"/>
    <path d="M16.551,19.189 C16.322,19.429 16.126,19.693 15.955,19.972 L8.415,15.171 C8.614,14.648 8.727,14.078 8.727,13.481 C8.727,12.884 8.614,12.314 8.416,11.791 L15.958,7.027 C16.732,8.303 18.090,9.153 19.636,9.153 C22.042,9.153 24.000,7.100 24.000,4.577 C24.000,2.053 22.042,0.000 19.636,0.000 C17.230,0.000 15.273,2.053 15.273,4.577 C15.273,5.151 15.379,5.700 15.564,6.207 L8.012,10.977 C7.232,9.730 5.889,8.904 4.364,8.904 C1.957,8.904 -0.000,10.957 -0.000,13.481 C-0.000,16.005 1.957,18.058 4.364,18.058 C5.889,18.058 7.231,17.232 8.011,15.985 L15.562,20.792 C15.375,21.307 15.272,21.858 15.272,22.426 C15.272,23.648 15.726,24.798 16.550,25.662 C17.401,26.554 18.518,27.000 19.636,27.000 C20.754,27.000 21.871,26.554 22.721,25.662 C23.546,24.797 24.000,23.648 24.000,22.426 C24.000,21.203 23.546,20.054 22.721,19.189 C21.020,17.405 18.252,17.405 16.551,19.189 ZM19.636,0.915 C21.561,0.915 23.127,2.558 23.127,4.577 C23.127,6.595 21.561,8.238 19.636,8.238 C17.712,8.238 16.146,6.595 16.146,4.577 C16.146,2.558 17.711,0.915 19.636,0.915 ZM4.364,17.142 C2.439,17.142 0.873,15.500 0.873,13.481 C0.873,11.462 2.439,9.820 4.364,9.820 C6.289,9.820 7.855,11.462 7.855,13.481 C7.855,15.500 6.289,17.142 4.364,17.142 ZM22.104,25.015 C20.743,26.442 18.529,26.442 17.168,25.015 C16.509,24.323 16.146,23.403 16.146,22.426 C16.146,21.448 16.509,20.528 17.168,19.837 C17.849,19.123 18.742,18.766 19.636,18.766 C20.530,18.766 21.424,19.123 22.105,19.837 C22.764,20.528 23.127,21.448 23.127,22.426 C23.127,23.403 22.764,24.323 22.104,25.015 Z" class="cls-2"/>
  </g>
</svg>
