<svg xmlns="http://www.w3.org/2000/svg" xmlns:xlink="http://www.w3.org/1999/xlink" preserveAspectRatio="xMidYMid" width="27" height="27" viewBox="0 0 27 27">
  <defs>
    <style>
      .cls-1 {
        fill: #fe9fac;
      }

      .cls-1, .cls-2 {
        fill-rule: evenodd;
      }

      .cls-2 {
        fill: #fd7285;
      }
    </style>
  </defs>
  <path d="M11.000,24.000 C11.000,24.552 11.448,25.000 12.000,25.000 C12.552,25.000 13.000,24.552 13.000,24.000 L16.000,24.000 C15.448,24.000 15.000,24.448 15.000,25.000 C15.000,25.303 15.142,25.565 15.354,25.749 C14.930,25.902 14.478,26.000 14.000,26.000 C12.523,26.000 11.248,25.191 10.555,24.000 L11.000,24.000 ZM17.413,24.000 C17.272,24.245 17.128,24.488 16.938,24.695 C16.808,24.294 16.444,24.000 16.000,24.000 L17.413,24.000 Z" class="cls-1"/>
  <path d="M18.177,23.613 C17.574,25.597 15.688,27.000 13.492,27.000 C11.311,27.000 9.411,25.593 8.807,23.613 L-0.000,23.613 L0.003,23.046 C0.015,20.751 1.690,18.786 3.977,18.284 L3.977,11.682 C3.977,7.582 6.803,4.105 10.682,2.949 L10.682,2.705 C10.682,1.213 11.946,-0.000 13.500,-0.000 C15.053,-0.000 16.317,1.213 16.317,2.705 L16.317,2.949 C20.197,4.105 23.023,7.583 23.023,11.682 L23.023,18.284 C25.310,18.786 26.984,20.751 26.997,23.046 L27.000,23.613 L18.177,23.613 ZM13.492,25.872 C15.043,25.872 16.399,24.953 16.950,23.613 L10.029,23.613 C10.582,24.952 11.950,25.872 13.492,25.872 ZM13.500,1.129 C12.602,1.129 11.874,1.826 11.863,2.685 C12.395,2.596 12.940,2.540 13.499,2.540 C14.059,2.540 14.604,2.596 15.137,2.685 C15.125,1.826 14.397,1.129 13.500,1.129 ZM22.383,19.322 L10.119,19.322 L10.119,18.193 L21.847,18.193 L21.847,11.682 C21.847,7.264 18.103,3.669 13.499,3.669 C8.897,3.669 5.153,7.264 5.153,11.682 L5.153,18.193 L6.730,18.193 L6.730,19.322 L4.614,19.322 C2.863,19.539 1.494,20.850 1.226,22.484 L25.773,22.484 C25.505,20.849 24.135,19.538 22.383,19.322 Z" class="cls-2"/>
</svg>
