<svg xmlns="http://www.w3.org/2000/svg" xmlns:xlink="http://www.w3.org/1999/xlink" preserveAspectRatio="xMidYMid" width="29" height="29" viewBox="0 0 29 29">
  <defs>
    <style>
      .cls-1 {
        fill: #fd586f;
        fill-rule: evenodd;
      }
    </style>
  </defs>
  <path d="M24.042,17.394 C24.009,17.417 23.978,17.440 23.941,17.454 L23.904,17.476 L29.000,20.460 L14.500,29.003 L0.000,20.460 L5.096,17.476 L0.000,14.474 L5.096,11.490 L0.000,8.488 L14.500,-0.003 L28.999,8.488 L23.903,11.490 L28.999,14.474 L24.042,17.394 ZM2.133,20.463 L14.499,27.749 L26.867,20.463 L22.839,18.103 L14.500,23.016 L6.161,18.103 L2.133,20.463 ZM26.867,8.490 L14.500,1.248 L2.133,8.490 L14.500,15.777 L22.837,10.865 L26.867,8.490 ZM22.839,12.117 L22.670,12.216 C22.601,12.434 22.409,12.594 22.175,12.594 C22.137,12.594 22.103,12.580 22.067,12.572 L20.905,13.256 C21.032,13.355 21.119,13.506 21.119,13.682 C21.119,13.983 20.883,14.227 20.592,14.227 C20.321,14.227 20.107,14.015 20.076,13.745 L14.772,16.870 C14.776,16.897 14.787,16.920 14.787,16.948 C14.787,17.249 14.551,17.492 14.259,17.492 C13.968,17.492 13.732,17.249 13.732,16.948 C13.732,16.831 13.775,16.728 13.836,16.640 L8.385,13.428 C8.426,13.505 8.455,13.589 8.455,13.683 C8.455,13.983 8.218,14.227 7.927,14.227 C7.636,14.227 7.399,13.983 7.399,13.683 C7.399,13.391 7.623,13.157 7.903,13.144 L6.709,12.441 C6.614,12.535 6.486,12.595 6.344,12.595 C6.135,12.595 5.959,12.467 5.873,12.286 L2.132,14.477 L2.849,14.899 C2.940,14.823 3.051,14.771 3.177,14.771 C3.468,14.771 3.705,15.015 3.705,15.316 C3.705,15.343 3.693,15.367 3.689,15.394 L8.995,18.519 C9.026,18.249 9.240,18.037 9.511,18.037 C9.802,18.037 10.038,18.280 10.038,18.581 C10.038,18.758 9.951,18.908 9.823,19.007 L10.985,19.691 C11.021,19.683 11.055,19.669 11.094,19.669 C11.328,19.669 11.521,19.829 11.589,20.047 L14.500,21.763 L16.923,20.336 C16.913,20.295 16.898,20.256 16.898,20.213 C16.898,19.912 17.135,19.669 17.426,19.669 C17.569,19.669 17.697,19.728 17.792,19.823 L18.986,19.119 C18.706,19.106 18.481,18.872 18.481,18.580 C18.481,18.280 18.718,18.036 19.009,18.036 C19.300,18.036 19.537,18.280 19.537,18.580 C19.537,18.675 19.507,18.760 19.466,18.837 L22.837,16.851 L24.919,15.624 C24.858,15.535 24.814,15.433 24.814,15.315 C24.814,15.015 25.050,14.771 25.342,14.771 C25.555,14.771 25.738,14.904 25.821,15.092 L26.867,14.476 L22.839,12.117 ZM23.758,14.227 C23.466,14.227 23.230,13.984 23.230,13.683 C23.230,13.382 23.466,13.139 23.758,13.139 C24.049,13.139 24.286,13.382 24.286,13.683 C24.286,13.984 24.049,14.227 23.758,14.227 ZM22.175,15.860 C21.883,15.860 21.647,15.616 21.647,15.316 C21.647,15.015 21.883,14.771 22.175,14.771 C22.466,14.771 22.702,15.015 22.702,15.316 C22.702,15.616 22.466,15.860 22.175,15.860 ZM20.592,17.492 C20.300,17.492 20.064,17.249 20.064,16.948 C20.064,16.648 20.300,16.404 20.592,16.404 C20.883,16.404 21.119,16.648 21.119,16.948 C21.119,17.249 20.883,17.492 20.592,17.492 ZM19.009,15.860 C18.717,15.860 18.481,15.616 18.481,15.316 C18.481,15.015 18.717,14.771 19.009,14.771 C19.300,14.771 19.536,15.015 19.536,15.316 C19.536,15.616 19.300,15.860 19.009,15.860 ZM17.425,17.492 C17.134,17.492 16.898,17.249 16.898,16.948 C16.898,16.648 17.134,16.404 17.425,16.404 C17.717,16.404 17.953,16.648 17.953,16.948 C17.953,17.249 17.717,17.492 17.425,17.492 ZM15.842,19.125 C15.551,19.125 15.315,18.881 15.315,18.581 C15.315,18.280 15.551,18.037 15.842,18.037 C16.134,18.037 16.370,18.280 16.370,18.581 C16.370,18.881 16.134,19.125 15.842,19.125 ZM14.259,20.757 C13.968,20.757 13.732,20.514 13.732,20.213 C13.732,19.913 13.968,19.669 14.259,19.669 C14.551,19.669 14.787,19.913 14.787,20.213 C14.787,20.514 14.551,20.757 14.259,20.757 ZM12.676,19.125 C12.385,19.125 12.148,18.881 12.148,18.581 C12.148,18.280 12.385,18.037 12.676,18.037 C12.968,18.037 13.204,18.280 13.204,18.581 C13.204,18.881 12.968,19.125 12.676,19.125 ZM11.093,17.492 C10.802,17.492 10.565,17.249 10.565,16.948 C10.565,16.648 10.802,16.404 11.093,16.404 C11.385,16.404 11.621,16.648 11.621,16.948 C11.621,17.249 11.385,17.492 11.093,17.492 ZM9.510,15.860 C9.219,15.860 8.982,15.616 8.982,15.316 C8.982,15.015 9.219,14.771 9.510,14.771 C9.802,14.771 10.038,15.015 10.038,15.316 C10.038,15.616 9.802,15.860 9.510,15.860 ZM7.927,17.492 C7.635,17.492 7.399,17.249 7.399,16.948 C7.399,16.648 7.635,16.404 7.927,16.404 C8.218,16.404 8.455,16.648 8.455,16.948 C8.455,17.249 8.218,17.492 7.927,17.492 ZM6.344,15.860 C6.052,15.860 5.816,15.616 5.816,15.316 C5.816,15.015 6.052,14.771 6.344,14.771 C6.635,14.771 6.871,15.015 6.871,15.316 C6.871,15.616 6.635,15.860 6.344,15.860 ZM4.761,14.227 C4.469,14.227 4.233,13.984 4.233,13.683 C4.233,13.382 4.469,13.139 4.761,13.139 C5.052,13.139 5.288,13.382 5.288,13.683 C5.288,13.984 5.052,14.227 4.761,14.227 Z" class="cls-1"/>
</svg>
