<svg xmlns="http://www.w3.org/2000/svg" preserveAspectRatio="xMidYMid" width="24" height="27"><path d="M7.934 14.675A.99.99 0 0 0 7 14a1 1 0 0 0 0 2c.2 0 .376-.074.532-.175a4.069 4.069 0 0 1-.594.87A.988.988 0 0 0 6 16a1 1 0 0 0-1 1c0 .303.142.565.354.749A3.973 3.973 0 0 1 4 18a4 4 0 0 1-4-4c0-1.551.892-2.881 2.183-3.545A.976.976 0 0 0 2 11a1 1 0 0 0 2 0 .992.992 0 0 0-.667-.933C3.551 10.03 3.772 10 4 10a1 1 0 0 0 1 1 .987.987 0 0 0 .857-.515c.301.162.588.347.838.577A.988.988 0 0 0 6 12a1 1 0 0 0 1 1 .989.989 0 0 0 .749-.354C7.902 13.07 8 13.522 8 14c0 .231-.027.455-.066.675zM2 17a1 1 0 1 0 0-2 1 1 0 0 0 0 2zm0-5a1 1 0 1 0 0 2 1 1 0 0 0 0-2zm1 3a1 1 0 1 0 2 0 1 1 0 0 0-2 0zm2-3a1 1 0 1 0 0 2 1 1 0 0 0 0-2zm18.934-7.325A.99.99 0 0 0 23 4a1 1 0 0 0 0 2c.2 0 .376-.074.532-.175a4.069 4.069 0 0 1-.594.87A.988.988 0 0 0 22 6a1 1 0 0 0-1 1c0 .303.142.565.354.749A3.973 3.973 0 0 1 20 8a4 4 0 0 1-4-4c0-1.551.892-2.881 2.183-3.545A.976.976 0 0 0 18 1a1 1 0 0 0 2 0 .992.992 0 0 0-.667-.933C19.551.03 19.772 0 20 0a1 1 0 0 0 1 1 .987.987 0 0 0 .857-.515c.301.162.588.347.838.577A.988.988 0 0 0 22 2a1 1 0 0 0 1 1 .989.989 0 0 0 .749-.354C23.902 3.07 24 3.522 24 4c0 .231-.027.455-.066.675zM18 7a1 1 0 1 0 0-2 1 1 0 0 0 0 2zm0-5a1 1 0 1 0 0 2 1 1 0 0 0 0-2zm1 3a1 1 0 1 0 2 0 1 1 0 0 0-2 0zm2-3a1 1 0 1 0 0 2 1 1 0 0 0 0-2zm2.934 20.675A.99.99 0 0 0 23 22a1 1 0 0 0 0 2c.2 0 .376-.074.532-.175a4.069 4.069 0 0 1-.594.87A.988.988 0 0 0 22 24a1 1 0 0 0-1 1c0 .303.142.565.354.749A3.973 3.973 0 0 1 20 26a4 4 0 0 1-4-4c0-1.551.892-2.881 2.183-3.545A.976.976 0 0 0 18 19a1 1 0 0 0 2 0 .992.992 0 0 0-.667-.933c.218-.037.439-.067.667-.067a1 1 0 0 0 1 1 .987.987 0 0 0 .857-.515c.301.162.588.347.838.577A.988.988 0 0 0 22 20a1 1 0 0 0 1 1 .989.989 0 0 0 .749-.354c.153.424.251.876.251 1.354 0 .231-.027.455-.066.675zM18 25a1 1 0 1 0 0-2 1 1 0 0 0 0 2zm0-5a1 1 0 1 0 0 2 1 1 0 0 0 0-2zm1 3a1 1 0 1 0 2 0 1 1 0 0 0-2 0zm2-3a1 1 0 1 0 0 2 1 1 0 0 0 0-2z" fill="#febac3" fill-rule="evenodd"/><path d="M16.551 19.189c-.229.24-.425.504-.596.783l-7.54-4.801a4.746 4.746 0 0 0 .001-3.38l7.542-4.764c.774 1.276 2.132 2.126 3.678 2.126C22.042 9.153 24 7.1 24 4.577 24 2.053 22.042 0 19.636 0c-2.406 0-4.363 2.053-4.363 4.577 0 .574.106 1.123.291 1.63l-7.552 4.77c-.78-1.247-2.123-2.073-3.648-2.073C1.957 8.904 0 10.957 0 13.481s1.957 4.577 4.364 4.577c1.525 0 2.867-.826 3.647-2.073l7.551 4.807a4.783 4.783 0 0 0-.29 1.634c0 1.222.454 2.372 1.278 3.236A4.25 4.25 0 0 0 19.636 27a4.246 4.246 0 0 0 3.085-1.338A4.66 4.66 0 0 0 24 22.426a4.66 4.66 0 0 0-1.279-3.237 4.226 4.226 0 0 0-6.17 0zM19.636.915c1.925 0 3.491 1.643 3.491 3.662 0 2.018-1.566 3.661-3.491 3.661-1.924 0-3.49-1.643-3.49-3.661 0-2.019 1.565-3.662 3.49-3.662zM4.364 17.142c-1.925 0-3.491-1.642-3.491-3.661S2.439 9.82 4.364 9.82s3.491 1.642 3.491 3.661-1.566 3.661-3.491 3.661zm17.74 7.873a3.38 3.38 0 0 1-4.936 0 3.733 3.733 0 0 1-1.022-2.589 3.73 3.73 0 0 1 1.022-2.589 3.398 3.398 0 0 1 2.468-1.071 3.4 3.4 0 0 1 2.469 1.071 3.73 3.73 0 0 1 1.022 2.589 3.73 3.73 0 0 1-1.023 2.589z" fill="#fd586f" fill-rule="evenodd"/></svg>