<svg xmlns="http://www.w3.org/2000/svg" preserveAspectRatio="xMidYMid" width="26" height="26"><path d="M16.934 13.675A.99.99 0 0 0 16 13a1 1 0 0 0 0 2c.2 0 .376-.074.532-.175a4.069 4.069 0 0 1-.594.87A.988.988 0 0 0 15 15a1 1 0 0 0-1 1c0 .303.142.565.354.749A3.973 3.973 0 0 1 13 17a4 4 0 0 1-4-4c0-1.551.892-2.881 2.183-3.545A.976.976 0 0 0 11 10a1 1 0 0 0 2 0 .992.992 0 0 0-.667-.933C12.551 9.03 12.772 9 13 9a1 1 0 0 0 1 1 .987.987 0 0 0 .857-.515c.301.162.588.347.838.577A.988.988 0 0 0 15 11a1 1 0 0 0 1 1 .989.989 0 0 0 .749-.354c.153.424.251.876.251 1.354 0 .231-.027.455-.066.675zM11 16a1 1 0 1 0 0-2 1 1 0 0 0 0 2zm0-5a1 1 0 1 0 0 2 1 1 0 0 0 0-2zm1 3a1 1 0 1 0 2 0 1 1 0 0 0-2 0zm2-3a1 1 0 1 0 0 2 1 1 0 0 0 0-2z" fill-rule="evenodd" fill="#febac3"/><path d="M24.661 15.889h-2.432a.907.907 0 0 0-.863.576.908.908 0 0 0 .202 1.018l1.72 1.719c.253.254.392.59.392.947 0 .358-.139.694-.392.947l-2.192 2.192c-.506.506-1.388.507-1.894 0l-1.72-1.72a.908.908 0 0 0-1.017-.202.909.909 0 0 0-.577.863v2.432c0 .739-.6 1.339-1.338 1.339h-3.1a1.34 1.34 0 0 1-1.339-1.339v-2.432a.908.908 0 0 0-.576-.863.91.91 0 0 0-1.018.202l-1.72 1.72c-.506.507-1.387.506-1.893 0l-2.192-2.192a1.33 1.33 0 0 1-.392-.947c0-.357.139-.694.392-.947l1.72-1.719a.911.911 0 0 0 .202-1.018.908.908 0 0 0-.863-.576H1.338A1.34 1.34 0 0 1 0 14.55v-3.1c0-.739.6-1.339 1.338-1.339h2.433a.908.908 0 0 0 .863-.576.911.911 0 0 0-.202-1.018l-1.72-1.719a1.333 1.333 0 0 1-.392-.947c0-.358.139-.694.392-.947l2.192-2.192c.505-.506 1.387-.507 1.893 0l1.72 1.719a.909.909 0 0 0 1.018.203.908.908 0 0 0 .576-.863V1.339C10.111.6 10.711 0 11.45 0h3.1c.738 0 1.339.6 1.339 1.339v2.432c0 .391.215.713.576.863.36.15.742.073 1.018-.203l1.719-1.719c.507-.507 1.388-.506 1.894 0l2.192 2.192c.253.253.392.589.392.947 0 .357-.139.694-.392.947l-1.72 1.719a.908.908 0 0 0-.202 1.018c.15.361.472.576.863.576h2.432c.739 0 1.339.6 1.339 1.339v3.1c0 .738-.6 1.339-1.339 1.339zm.376-4.439a.375.375 0 0 0-.376-.375h-2.432a1.868 1.868 0 0 1-1.753-1.171 1.869 1.869 0 0 1 .412-2.068l1.719-1.719a.376.376 0 0 0 0-.532l-2.192-2.192a.375.375 0 0 0-.531 0l-1.72 1.719a1.867 1.867 0 0 1-2.067.412 1.868 1.868 0 0 1-1.171-1.753V1.339a.376.376 0 0 0-.376-.376h-3.1a.376.376 0 0 0-.376.376v2.432c0 .782-.449 1.454-1.171 1.752-.723.3-1.515.141-2.067-.411l-1.72-1.72a.377.377 0 0 0-.531 0L3.392 5.585a.377.377 0 0 0 0 .531l1.72 1.72c.554.552.711 1.345.412 2.067a1.868 1.868 0 0 1-1.753 1.171H1.338a.376.376 0 0 0-.375.376v3.1c0 .207.168.376.375.376h2.433c.782 0 1.454.449 1.753 1.17a1.869 1.869 0 0 1-.412 2.068l-1.72 1.719a.378.378 0 0 0 0 .532l2.193 2.192a.376.376 0 0 0 .531 0l1.72-1.72a1.868 1.868 0 0 1 2.067-.411 1.868 1.868 0 0 1 1.171 1.753v2.432c0 .207.168.376.376.376h3.1a.377.377 0 0 0 .376-.376v-2.432c0-.782.449-1.454 1.171-1.753a1.868 1.868 0 0 1 2.067.412l1.72 1.719a.374.374 0 0 0 .531 0l2.192-2.192a.375.375 0 0 0 0-.531l-1.719-1.72a1.866 1.866 0 0 1-.412-2.067 1.868 1.868 0 0 1 1.753-1.171h2.432a.376.376 0 0 0 .376-.376v-3.1zM13 17.333A4.337 4.337 0 0 1 8.667 13 4.337 4.337 0 0 1 13 8.667 4.338 4.338 0 0 1 17.333 13 4.338 4.338 0 0 1 13 17.333zm0-7.703A3.374 3.374 0 0 0 9.63 13 3.374 3.374 0 0 0 13 16.37 3.374 3.374 0 0 0 16.37 13 3.374 3.374 0 0 0 13 9.63z" fill="#fd7285" fill-rule="evenodd"/></svg>