<svg xmlns="http://www.w3.org/2000/svg" preserveAspectRatio="xMidYMid" width="27" height="27"><path d="M11 24a1 1 0 0 0 2 0h3a1 1 0 0 0-1 1c0 .303.142.565.354.749A3.973 3.973 0 0 1 14 26c-1.477 0-2.752-.809-3.445-2H11zm6.413 0c-.141.245-.285.488-.475.695A.988.988 0 0 0 16 24h1.413z" fill-rule="evenodd" fill="#fe9fac"/><path d="M18.177 23.613C17.574 25.597 15.688 27 13.492 27c-2.181 0-4.081-1.407-4.685-3.387H0l.003-.567c.012-2.295 1.687-4.26 3.974-4.762v-6.602c0-4.1 2.826-7.577 6.705-8.733v-.244C10.682 1.213 11.946 0 13.5 0c1.553 0 2.817 1.213 2.817 2.705v.244c3.88 1.156 6.706 4.634 6.706 8.733v6.602c2.287.502 3.961 2.467 3.974 4.762l.003.567h-8.823zm-4.685 2.259c1.551 0 2.907-.919 3.458-2.259h-6.921c.553 1.339 1.921 2.259 3.463 2.259zM13.5 1.129c-.898 0-1.626.697-1.637 1.556a9.893 9.893 0 0 1 1.636-.145c.56 0 1.105.056 1.638.145-.012-.859-.74-1.556-1.637-1.556zm8.883 18.193H10.119v-1.129h11.728v-6.511c0-4.418-3.744-8.013-8.348-8.013-4.602 0-8.346 3.595-8.346 8.013v6.511H6.73v1.129H4.614c-1.751.217-3.12 1.528-3.388 3.162h24.547c-.268-1.635-1.638-2.946-3.39-3.162z" fill="#fd7285" fill-rule="evenodd"/></svg>