<svg xmlns="http://www.w3.org/2000/svg" preserveAspectRatio="xMidYMid" width="29" height="29"><path d="M24.042 17.394c-.033.023-.064.046-.101.06l-.037.022L29 20.46l-14.5 8.543L0 20.46l5.096-2.984L0 14.474l5.096-2.984L0 8.488 14.5-.003l14.499 8.491-5.096 3.002 5.096 2.984-4.957 2.92zM2.133 20.463l12.366 7.286 12.368-7.286-4.028-2.36-8.339 4.913-8.339-4.913-4.028 2.36zM26.867 8.49L14.5 1.248 2.133 8.49 14.5 15.777l8.337-4.912 4.03-2.375zm-4.028 3.627l-.169.099a.524.524 0 0 1-.495.378c-.038 0-.072-.014-.108-.022l-1.162.684a.54.54 0 0 1 .214.426.536.536 0 0 1-.527.545.528.528 0 0 1-.516-.482l-5.304 3.125c.004.027.015.05.015.078a.536.536 0 0 1-.528.544.535.535 0 0 1-.423-.852l-5.451-3.212a.537.537 0 0 1-.458.799.537.537 0 0 1-.528-.544c0-.292.224-.526.504-.539l-1.194-.703a.518.518 0 0 1-.365.154.524.524 0 0 1-.471-.309l-3.741 2.191.717.422a.51.51 0 0 1 .328-.128c.291 0 .528.244.528.545 0 .027-.012.051-.016.078l5.306 3.125a.528.528 0 0 1 .516-.482c.291 0 .527.243.527.544a.536.536 0 0 1-.215.426l1.162.684c.036-.008.07-.022.109-.022.234 0 .427.16.495.378l2.911 1.716 2.423-1.427c-.01-.041-.025-.08-.025-.123 0-.301.237-.544.528-.544.143 0 .271.059.366.154l1.194-.704a.534.534 0 0 1-.505-.539c0-.3.237-.544.528-.544a.537.537 0 0 1 .457.801l3.371-1.986 2.082-1.227a.536.536 0 0 1 .423-.853c.213 0 .396.133.479.321l1.046-.616-4.028-2.359zm.919 2.11a.536.536 0 0 1-.528-.544c0-.301.236-.544.528-.544.291 0 .528.243.528.544a.536.536 0 0 1-.528.544zm-1.583 1.633a.536.536 0 0 1-.528-.544c0-.301.236-.545.528-.545.291 0 .527.244.527.545 0 .3-.236.544-.527.544zm-1.583 1.632a.536.536 0 0 1-.528-.544c0-.3.236-.544.528-.544.291 0 .527.244.527.544a.535.535 0 0 1-.527.544zm-1.583-1.632a.536.536 0 0 1-.528-.544c0-.301.236-.545.528-.545.291 0 .527.244.527.545 0 .3-.236.544-.527.544zm-1.584 1.632a.535.535 0 0 1-.527-.544c0-.3.236-.544.527-.544.292 0 .528.244.528.544a.536.536 0 0 1-.528.544zm-1.583 1.633a.536.536 0 0 1-.527-.544c0-.301.236-.544.527-.544.292 0 .528.243.528.544 0 .3-.236.544-.528.544zm-1.583 1.632a.535.535 0 0 1-.527-.544c0-.3.236-.544.527-.544.292 0 .528.244.528.544a.536.536 0 0 1-.528.544zm-1.583-1.632a.537.537 0 0 1-.528-.544c0-.301.237-.544.528-.544.292 0 .528.243.528.544 0 .3-.236.544-.528.544zm-1.583-1.633a.536.536 0 0 1-.528-.544c0-.3.237-.544.528-.544.292 0 .528.244.528.544a.536.536 0 0 1-.528.544zM9.51 15.86a.537.537 0 0 1-.528-.544c0-.301.237-.545.528-.545.292 0 .528.244.528.545 0 .3-.236.544-.528.544zm-1.583 1.632a.536.536 0 0 1-.528-.544c0-.3.236-.544.528-.544.291 0 .528.244.528.544a.536.536 0 0 1-.528.544zM6.344 15.86a.536.536 0 0 1-.528-.544c0-.301.236-.545.528-.545.291 0 .527.244.527.545 0 .3-.236.544-.527.544zm-1.583-1.633a.536.536 0 0 1-.528-.544c0-.301.236-.544.528-.544.291 0 .527.243.527.544a.535.535 0 0 1-.527.544z" fill="#fd586f" fill-rule="evenodd"/></svg>